<svg version="1.1" xmlns="http://www.w3.org/2000/svg" xmlns:xlink="http://www.w3.org/1999/xlink" width="40px" height="40px" viewBox="0 0 40 40"><g><path style="fill:#26BAA4;fill-opacity:0.7;" d="M27.2,24.7L27.2,24.7c-0.1-0.2-0.2-0.5-0.3-0.7l0,0l-0.1-0.1l0,0
		l0,0L24.7,20v0L23,16.9l-0.9-1.5l-1.7-3.1l-0.3-0.6L18,8l0,0l0,0l-0.1-0.2l0,0l0-0.1c-0.3-0.5-0.7-1-1.1-1.4
		C15.3,4.8,13.4,4,11.5,4h0C9.5,4,7.6,4.8,6.2,6.3C5.9,6.5,5.7,6.8,5.5,7.1c-0.3,0.5-0.6,1-0.9,1.5c-0.9,2.2-0.8,4.6,0.3,6.7
		l0.2,0.4l0,0.1l0,0l6.7,11.9l1.7,3.1l0.4,0.6l0,0v0l0,0l0.1,0.2l0,0l0,0c0.1,0.2,0.2,0.4,0.4,0.6v0c0.2,0.3,0.5,0.6,0.7,0.9
		c1.2,1.2,2.7,2,4.4,2.2v0c0.6,0.1,1.2,0.1,1.7,0l0,0v0c1.7-0.2,3.2-1,4.4-2.2c0.4-0.4,0.7-0.8,1-1.3l0.4-0.6l0,0l0,0
		C28,29.2,28.1,26.8,27.2,24.7"/></g><path style="fill:#5591CD;fill-opacity:0.7;" d="M26.5,32.4L26.5,32.4c0.2-0.2,0.3-0.4,0.4-0.6l0,0l0.1-0.1l0,0l0,0l2.1-3.7h0l1.7-3
	l0.9-1.5l1.7-3l0.3-0.6l2.1-3.6l0,0l0,0l0.1-0.2h0l0,0l0-0.1c1.2-2.3,1.2-5.1-0.1-7.4l0,0c-1-1.7-2.6-3-4.5-3.5
	c-0.4-0.1-0.7-0.2-1.1-0.2c-0.6-0.1-1.1-0.1-1.7,0c-2.3,0.3-4.3,1.6-5.4,3.5l-0.2,0.4l0,0.1v0l-6.7,11.8l-1.7,3L14.1,24l0,0l0,0l0,0
	L14,24.2l0,0l0,0c-0.1,0.2-0.2,0.4-0.3,0.6l0,0c-0.1,0.3-0.3,0.7-0.4,1.1c-0.4,1.6-0.3,3.4,0.3,4.9c0.2,0.5,0.5,1.1,0.9,1.5l0,0h0
	c1,1.4,2.4,2.3,4,2.8c0.5,0.1,1,0.2,1.6,0.2h0.7C23.1,35.3,25.1,34.2,26.5,32.4"/></svg>
